<svg width="34" height="34" viewBox="0 0 34 34" fill="none" xmlns="http://www.w3.org/2000/svg">
<path d="M24.2996 21.3836H22.7639L22.2196 20.8588C24.1905 18.5727 25.2737 15.6542 25.2716 12.6358C25.2716 10.1367 24.5305 7.69367 23.1421 5.61573C21.7536 3.53778 19.7802 1.91822 17.4713 0.961848C15.1624 0.00547489 12.6218 -0.244756 10.1707 0.242799C7.71957 0.730354 5.46809 1.9338 3.70094 3.70094C1.9338 5.46809 0.730354 7.71957 0.242799 10.1707C-0.244756 12.6218 0.00547489 15.1624 0.961848 17.4713C1.91822 19.7802 3.53778 21.7536 5.61573 23.1421C7.69367 24.5305 10.1367 25.2716 12.6358 25.2716C15.7656 25.2716 18.6427 24.1246 20.8588 22.2196L21.3836 22.7639V24.2996L31.1035 34L34 31.1035L24.2996 21.3836ZM12.6358 21.3836C7.79532 21.3836 3.88794 17.4763 3.88794 12.6358C3.88794 7.79532 7.79532 3.88794 12.6358 3.88794C17.4763 3.88794 21.3836 7.79532 21.3836 12.6358C21.3836 17.4763 17.4763 21.3836 12.6358 21.3836Z" fill="white"/>
</svg>
