<?xml version="1.0" ?><svg height="56.6934px" id="Layer_1" style="enable-background:new 0 0 56.6934 56.6934;" version="1.1" viewBox="0 0 56.6934 56.6934" width="56.6934px" xml:space="preserve" xmlns="http://www.w3.org/2000/svg" xmlns:xlink="http://www.w3.org/1999/xlink"><g><g><path d="M28.3467,4.0423c-13.6144,0-24.6511,11.0366-24.6511,24.6511s11.0367,24.6511,24.6511,24.6511    c13.6145,0,24.6511-11.0366,24.6511-24.6511S41.9612,4.0423,28.3467,4.0423z M42.8709,31.8262    c0.0613,0.3643,0.0958,0.7339,0.0958,1.1089c0,5.4205-6.5707,9.8308-14.6479,9.8308c-8.0773,0-14.6479-4.4103-14.6479-9.8308    c0-0.3862,0.037-0.7666,0.1019-1.1414c-1.0677-0.6891-1.7271-1.8701-1.7271-3.1509c0-2.0707,1.6848-3.7554,3.7554-3.7554    c0.9107,0,1.7702,0.3252,2.4523,0.9155c2.4941-1.5862,5.8183-2.5818,9.4824-2.6794l2.6357-9.0018l6.6173,1.2294    c0,0,0.0012,0.0007,0.002,0.0009c0.3861-0.6873,1.1003-1.1713,1.9441-1.2142c1.3068-0.0668,2.4241,0.9421,2.4908,2.249    c0.0667,1.3068-0.9422,2.4242-2.2491,2.4908s-2.4242-0.9423-2.4909-2.2491c-0.0023-0.0449,0.0064-0.0876,0.0067-0.1322    l-5.4913-1.0204l-2.2365,7.6498c3.6552,0.1079,6.9689,1.1093,9.4523,2.6984c0.6858-0.6033,1.5543-0.9365,2.4755-0.9365    c2.0707,0,3.7554,1.6847,3.7554,3.7554C44.6477,29.9438,43.968,31.1424,42.8709,31.8262z"/></g></g><g><path d="M32.9098,36.6217c-0.0142,0.0135-1.4175,1.3959-4.618,1.3959c-3.1459,0-4.4017-1.3351-4.4355-1.3719   c-0.2126-0.2439-0.5819-0.2709-0.8283-0.0609c-0.2476,0.2114-0.2765,0.5845-0.0645,0.832c0.062,0.0725,1.5667,1.7805,5.3282,1.7805   c3.7424,0,5.3983-1.6847,5.4672-1.7566c0.2236-0.2341,0.215-0.6028-0.0166-0.8289C33.5094,36.3852,33.1365,36.3907,32.9098,36.6217   z"/></g><g><circle cx="33.2996" cy="31.1989" r="2.3076"/></g><g><circle cx="23.6654" cy="31.1989" r="2.3076"/></g></svg>