<?xml version="1.0" ?><!DOCTYPE svg  PUBLIC '-//W3C//DTD SVG 1.1//EN'  'http://www.w3.org/Graphics/SVG/1.1/DTD/svg11.dtd'><svg height="100%" style="fill-rule:evenodd;clip-rule:evenodd;stroke-linejoin:round;stroke-miterlimit:2;" version="1.1" viewBox="0 0 512 512" width="100%" xml:space="preserve" xmlns="http://www.w3.org/2000/svg" xmlns:serif="http://www.serif.com/" xmlns:xlink="http://www.w3.org/1999/xlink"><path d="M256,0c141.29,0 256,114.71 256,256c0,141.29 -114.71,256 -256,256c-141.29,0 -256,-114.71 -256,-256c0,-141.29 114.71,-256 256,-256Zm40.896,345.87c17.923,0 32.565,14.641 32.565,32.565c0,17.923 -14.642,32.565 -32.565,32.565c-17.924,0 -32.565,-14.642 -32.565,-32.565l0,-32.565l32.565,0Zm-114.357,-48.974c0,-17.924 14.642,-32.565 32.565,-32.565c17.924,0 32.565,14.641 32.565,32.565l0,81.539c0,17.923 -14.641,32.565 -32.565,32.565c-17.923,0 -32.565,-14.642 -32.565,-32.565l0,-81.539Zm-16.409,0c0,17.923 -14.641,32.565 -32.565,32.565c-17.923,0 -32.565,-14.642 -32.565,-32.565c0,-17.924 14.642,-32.565 32.565,-32.565l32.565,0l0,32.565Zm212.305,32.565c17.924,-0.001 32.565,-14.642 32.565,-32.565c0,-17.924 -14.642,-32.565 -32.565,-32.565l-81.539,0c-17.924,0 -32.565,14.641 -32.565,32.565c0,17.923 14.641,32.565 32.565,32.565l81.539,0Zm0,-81.792c17.924,0 32.565,-14.642 32.565,-32.565c0,-17.923 -14.642,-32.565 -32.565,-32.565c-17.924,0 -32.565,14.642 -32.565,32.565l0,32.565l32.565,0Zm-48.974,-32.565c0,17.924 -14.642,32.565 -32.565,32.565c-17.924,0 -32.565,-14.641 -32.565,-32.565l0,-81.539c0,-17.923 14.641,-32.565 32.565,-32.565c17.923,0 32.565,14.642 32.565,32.565l0,81.539Zm-114.357,32.565c17.924,0 32.565,-14.642 32.565,-32.565c0,-17.923 -14.641,-32.565 -32.565,-32.565l-81.539,0c-17.923,0 -32.565,14.642 -32.565,32.565c0,17.924 14.642,32.565 32.565,32.565l81.539,0Zm32.565,-81.539l0,-32.565c0,-17.923 -14.641,-32.565 -32.565,-32.565c-17.923,0 -32.565,14.642 -32.565,32.565c0,17.924 14.642,32.565 32.565,32.565l32.565,0Z"/></svg>