<?xml version="1.0" ?><!DOCTYPE svg  PUBLIC '-//W3C//DTD SVG 1.1//EN'  'http://www.w3.org/Graphics/SVG/1.1/DTD/svg11.dtd'><svg enable-background="new 0 0 64 64" height="64px" id="Layer_1" version="1.1" viewBox="0 0 64 64" width="64px" xml:space="preserve" xmlns="http://www.w3.org/2000/svg" xmlns:xlink="http://www.w3.org/1999/xlink"><path d="M32,7.174C18.311,7.174,7.174,18.311,7.174,32c0,13.689,11.137,24.826,24.826,24.826c13.689,0,24.826-11.137,24.826-24.826  C56.826,18.311,45.689,7.174,32,7.174z M43.075,26.318c0.011,0.246,0.017,0.494,0.017,0.742c0,7.551-5.747,16.257-16.259,16.257  c-3.227,0-6.231-0.945-8.759-2.567c0.447,0.053,0.902,0.08,1.363,0.08c2.678,0,5.141-0.914,7.097-2.446  c-2.5-0.046-4.611-1.698-5.338-3.969c0.348,0.068,0.707,0.103,1.074,0.103c0.521,0,1.027-0.07,1.506-0.2  c-2.614-0.525-4.583-2.834-4.583-5.602c0-0.024,0-0.049,0.001-0.072c0.77,0.427,1.651,0.685,2.587,0.714  c-1.532-1.023-2.541-2.773-2.541-4.755c0-1.048,0.281-2.03,0.773-2.874c2.817,3.458,7.029,5.732,11.777,5.972  c-0.098-0.419-0.147-0.854-0.147-1.303c0-3.155,2.558-5.714,5.714-5.714c1.643,0,3.128,0.694,4.17,1.804  c1.303-0.256,2.525-0.73,3.63-1.387c-0.428,1.335-1.333,2.454-2.514,3.162c1.157-0.138,2.259-0.444,3.282-0.899  C45.161,24.508,44.191,25.515,43.075,26.318z"/></svg>