<?xml version="1.0" ?><!DOCTYPE svg  PUBLIC '-//W3C//DTD SVG 1.1//EN'  'http://www.w3.org/Graphics/SVG/1.1/DTD/svg11.dtd'><svg enable-background="new 0 0 512 512" height="512px" id="Layer_1" version="1.1" viewBox="0 0 512 512" width="512px" xml:space="preserve" xmlns="http://www.w3.org/2000/svg" xmlns:xlink="http://www.w3.org/1999/xlink"><g><path d="M437.012,74.982C390.66,28.641,326.733,0,255.997,0S121.334,28.641,74.982,74.982C28.636,121.339,0,185.407,0,255.997   c0,70.737,28.636,134.663,74.982,181.02C121.334,483.363,185.261,512,255.997,512s134.663-28.637,181.015-74.983   C483.358,390.66,512,326.734,512,255.997C512,185.407,483.358,121.339,437.012,74.982z"/><path clip-rule="evenodd" d="M397.602,184.7c-3.826-2.832-17.574-2.832-31.181-2.832   c-13.894,0.283-27.787,0.283-31.049,1.56c-2.969,1.131-9.633,17.292-18.276,33.871c-9.931,18.721-21.972,36.86-29.631,36.567   c-10.062,0-7.648-30.756-6.941-53.571c0.137-14.888-2.271-19.71-4.397-20.977c-5.245-3.69-19.7-7.225-19.7-7.225   s-43.383-3.267-49.472,15.444c8.36,1.136,22.537-1.424,17.009,56.55c-0.424,2.842-6.664,26.652-26.793-5.528   c-5.104-8.073-24.375-56.409-31.181-56.691c-22.264-0.429-44.367-1.419-52.016,2.832c-7.235,4.256,9.633,37.421,38.127,81.935   c23.098,36.567,47.624,64.92,90.149,72.004c8.077,0.857,28.777,1.696,35.441-1.414c4.387-2.131-1.142-33.594,14.03-36.719   c6.664-1.271,32.594,32.893,42.373,36.719c5.968,2.408,19.003,3.398,32.326,2.828c14.46-0.42,30.894,1.424,32.453-8.498   c3.55-21.688-43.787-50.047-45.069-63.365c-1.136-9.638,17.297-27.354,26.646-40.965C392.068,210.781,404.837,190.94,397.602,184.7   L397.602,184.7z" fill="#FFFFFF" fill-rule="evenodd"/></g></svg>